<mxfile host="app.diagrams.net" modified="2024-06-12T14:06:58.923Z" agent="Mozilla/5.0 (X11; CrOS x86_64 14541.0.0) AppleWebKit/537.36 (KHTML, like Gecko) Chrome/124.0.0.0 Safari/537.36" etag="_ByAZifosUQkvOdNii09" version="24.5.2" type="github">
  <diagram id="C5RBs43oDa-KdzZeNtuy" name="Page-1">
    <mxGraphModel dx="1976" dy="3043" grid="1" gridSize="10" guides="1" tooltips="1" connect="1" arrows="1" fold="1" page="1" pageScale="1" pageWidth="827" pageHeight="1169" background="none" math="0" shadow="0">
      <root>
        <mxCell id="WIyWlLk6GJQsqaUBKTNV-0" />
        <mxCell id="WIyWlLk6GJQsqaUBKTNV-1" parent="WIyWlLk6GJQsqaUBKTNV-0" />
        <mxCell id="lxwUFzQmobe0N9iCrBZv-39" value="&lt;b style=&quot;font-size: 10px;&quot;&gt;&lt;u style=&quot;&quot;&gt;&lt;font style=&quot;font-size: 10px;&quot;&gt;Stripe Account&lt;/font&gt;&lt;/u&gt;&lt;/b&gt;&lt;div&gt;&lt;span style=&quot;font-size: 10px;&quot;&gt;&lt;b&gt;&lt;u&gt;&lt;br&gt;&lt;/u&gt;&lt;/b&gt;&lt;/span&gt;&lt;div style=&quot;font-size: 10px;&quot;&gt;&lt;span style=&quot;white-space-collapse: preserve;&quot;&gt;&lt;font style=&quot;font-size: 10px;&quot;&gt;1. Legal Name from Plaid Identity&lt;br&gt;2. Bank Account from Plaid Auth&lt;br&gt;3. Routing Number from Plaid Auth&lt;br&gt;4. Address from Plaid Identity&lt;br&gt;5. Phone from Plaid Identity&lt;br&gt;6. Gender not provided&lt;br&gt;7. DOB from TIPBx form&lt;br&gt;8. Last 4-digits SSN from TIPBx form&lt;/font&gt;&lt;span style=&quot;font-size: 13px;&quot;&gt;&lt;br&gt;&lt;/span&gt;&lt;/span&gt;&lt;/div&gt;&lt;/div&gt;" style="whiteSpace=wrap;html=1;aspect=fixed;" vertex="1" parent="WIyWlLk6GJQsqaUBKTNV-1">
          <mxGeometry x="-550" y="-2060" width="180" height="180" as="geometry" />
        </mxCell>
        <mxCell id="lxwUFzQmobe0N9iCrBZv-42" value="&lt;b&gt;&lt;u&gt;Account Types&lt;/u&gt;&lt;/b&gt;&lt;div&gt;Joint Saving&lt;/div&gt;&lt;div&gt;Joint Checking&lt;/div&gt;&lt;div&gt;My Savings&lt;/div&gt;&lt;div&gt;Primary&amp;nbsp;&lt;/div&gt;" style="rounded=1;whiteSpace=wrap;html=1;" vertex="1" parent="WIyWlLk6GJQsqaUBKTNV-1">
          <mxGeometry x="-540" y="-1853.5" width="160" height="80" as="geometry" />
        </mxCell>
        <mxCell id="lxwUFzQmobe0N9iCrBZv-72" value="&lt;b&gt;&lt;u&gt;Settings&lt;/u&gt;&lt;/b&gt;&lt;div&gt;Security and Privacy&lt;/div&gt;&lt;div&gt;Social Media&lt;/div&gt;&lt;div&gt;Profile Management&lt;/div&gt;&lt;div&gt;Transactions&lt;/div&gt;&lt;div&gt;Notifications&lt;/div&gt;&lt;div&gt;Authentications&lt;/div&gt;&lt;div&gt;Support&lt;/div&gt;&lt;div&gt;Privacy&lt;/div&gt;" style="whiteSpace=wrap;html=1;aspect=fixed;" vertex="1" parent="WIyWlLk6GJQsqaUBKTNV-1">
          <mxGeometry x="87" y="-1640" width="140" height="140" as="geometry" />
        </mxCell>
        <mxCell id="lxwUFzQmobe0N9iCrBZv-81" value="&lt;span style=&quot;white-space-collapse: preserve;&quot;&gt;&lt;b&gt;&lt;u&gt;Add Credit/Debit Card&lt;/u&gt;&lt;/b&gt;&lt;/span&gt;&lt;div&gt;&lt;span style=&quot;white-space-collapse: preserve;&quot;&gt;Scan Cards&lt;/span&gt;&lt;/div&gt;&lt;div&gt;&lt;span style=&quot;white-space-collapse: preserve;&quot;&gt;Snap Your Card&lt;/span&gt;&lt;/div&gt;" style="rounded=1;whiteSpace=wrap;html=1;" vertex="1" parent="WIyWlLk6GJQsqaUBKTNV-1">
          <mxGeometry x="-329.5" y="-1730" width="181" height="80" as="geometry" />
        </mxCell>
        <mxCell id="lxwUFzQmobe0N9iCrBZv-98" value="" style="edgeStyle=entityRelationEdgeStyle;fontSize=12;html=1;endArrow=ERoneToMany;rounded=0;exitX=1.028;exitY=0.653;exitDx=0;exitDy=0;exitPerimeter=0;" edge="1" parent="WIyWlLk6GJQsqaUBKTNV-1" source="lxwUFzQmobe0N9iCrBZv-104" target="lxwUFzQmobe0N9iCrBZv-174">
          <mxGeometry width="100" height="100" relative="1" as="geometry">
            <mxPoint x="97.5" y="-1700" as="sourcePoint" />
            <mxPoint x="217" y="-1911" as="targetPoint" />
            <Array as="points">
              <mxPoint x="117.5" y="-1730" />
              <mxPoint x="117.5" y="-1830" />
            </Array>
          </mxGeometry>
        </mxCell>
        <mxCell id="lxwUFzQmobe0N9iCrBZv-99" value="" style="edgeStyle=entityRelationEdgeStyle;fontSize=12;html=1;endArrow=ERoneToMany;rounded=0;exitX=1;exitY=1;exitDx=0;exitDy=0;entryX=0;entryY=0.5;entryDx=0;entryDy=0;" edge="1" parent="WIyWlLk6GJQsqaUBKTNV-1" source="lxwUFzQmobe0N9iCrBZv-104" target="lxwUFzQmobe0N9iCrBZv-198">
          <mxGeometry width="100" height="100" relative="1" as="geometry">
            <mxPoint x="46.99999999999994" y="-1935" as="sourcePoint" />
            <mxPoint x="160.95" y="-1785.38" as="targetPoint" />
          </mxGeometry>
        </mxCell>
        <mxCell id="lxwUFzQmobe0N9iCrBZv-103" value="&lt;b style=&quot;font-size: 12px;&quot;&gt;USER&lt;/b&gt;" style="swimlane;childLayout=stackLayout;horizontal=1;startSize=50;horizontalStack=0;rounded=1;fontSize=14;fontStyle=0;strokeWidth=2;resizeParent=0;resizeLast=1;shadow=0;dashed=0;align=center;arcSize=4;whiteSpace=wrap;html=1;" vertex="1" parent="WIyWlLk6GJQsqaUBKTNV-1">
          <mxGeometry x="-16" y="-2180" width="150" height="290" as="geometry" />
        </mxCell>
        <mxCell id="lxwUFzQmobe0N9iCrBZv-104" value="&lt;h5 style=&quot;text-align: center;&quot;&gt;&lt;div&gt;&lt;font face=&quot;Tahoma&quot;&gt;&lt;span style=&quot;text-wrap: wrap; font-weight: normal;&quot;&gt;ATTRIBUTES&lt;/span&gt;&lt;/font&gt;&lt;/div&gt;&lt;ol&gt;&lt;li&gt;&lt;font face=&quot;Tahoma&quot;&gt;&lt;span style=&quot;background-color: initial; text-wrap: wrap; font-weight: normal;&quot;&gt;First name&lt;/span&gt;&lt;/font&gt;&lt;/li&gt;&lt;li&gt;&lt;font style=&quot;font-weight: normal;&quot; face=&quot;Tahoma&quot;&gt;Last Name&lt;/font&gt;&lt;/li&gt;&lt;li&gt;&lt;font style=&quot;font-weight: normal;&quot; face=&quot;Tahoma&quot;&gt;Phone No&lt;/font&gt;&lt;/li&gt;&lt;li&gt;&lt;font style=&quot;font-weight: normal;&quot; face=&quot;Tahoma&quot;&gt;Email&amp;nbsp;&lt;/font&gt;&lt;/li&gt;&lt;li&gt;&lt;font style=&quot;font-weight: normal;&quot; face=&quot;Tahoma&quot;&gt;Password&lt;/font&gt;&lt;/li&gt;&lt;li&gt;&lt;font style=&quot;font-weight: normal;&quot; face=&quot;Tahoma&quot;&gt;Profile Picture&lt;/font&gt;&lt;/li&gt;&lt;li&gt;&lt;font style=&quot;font-weight: normal;&quot; face=&quot;Tahoma&quot;&gt;Account type&lt;/font&gt;&lt;/li&gt;&lt;li&gt;&lt;font style=&quot;font-weight: normal;&quot; face=&quot;Tahoma&quot;&gt;Date Of Birth&lt;/font&gt;&lt;/li&gt;&lt;li&gt;&lt;font style=&quot;font-weight: normal;&quot; face=&quot;Tahoma&quot;&gt;State&lt;/font&gt;&lt;/li&gt;&lt;li&gt;&lt;font style=&quot;font-weight: normal;&quot; face=&quot;Tahoma&quot;&gt;Country&lt;/font&gt;&lt;/li&gt;&lt;li&gt;&lt;font style=&quot;font-weight: normal;&quot; face=&quot;Tahoma&quot;&gt;City&lt;/font&gt;&lt;/li&gt;&lt;li&gt;&lt;font style=&quot;font-weight: normal;&quot; face=&quot;Tahoma&quot;&gt;Postal Code&lt;/font&gt;&lt;/li&gt;&lt;li&gt;&lt;font style=&quot;font-weight: normal;&quot; face=&quot;Tahoma&quot;&gt;Street&lt;/font&gt;&lt;/li&gt;&lt;/ol&gt;&lt;/h5&gt;" style="align=left;strokeColor=none;fillColor=none;spacingLeft=4;fontSize=12;verticalAlign=top;resizable=0;rotatable=0;part=1;html=1;" vertex="1" parent="lxwUFzQmobe0N9iCrBZv-103">
          <mxGeometry y="50" width="150" height="240" as="geometry" />
        </mxCell>
        <mxCell id="lxwUFzQmobe0N9iCrBZv-116" value="" style="edgeStyle=entityRelationEdgeStyle;fontSize=12;html=1;endArrow=ERmany;startArrow=ERmany;rounded=0;entryX=0;entryY=0.75;entryDx=0;entryDy=0;exitX=1;exitY=0.5;exitDx=0;exitDy=0;" edge="1" parent="WIyWlLk6GJQsqaUBKTNV-1" source="lxwUFzQmobe0N9iCrBZv-42" target="lxwUFzQmobe0N9iCrBZv-80">
          <mxGeometry width="100" height="100" relative="1" as="geometry">
            <mxPoint x="-282.5" y="-1740" as="sourcePoint" />
            <mxPoint x="-242.5" y="-1890" as="targetPoint" />
          </mxGeometry>
        </mxCell>
        <mxCell id="lxwUFzQmobe0N9iCrBZv-117" value="" style="edgeStyle=entityRelationEdgeStyle;fontSize=12;html=1;endArrow=ERmany;rounded=0;exitX=0.5;exitY=1;exitDx=0;exitDy=0;entryX=1;entryY=0.25;entryDx=0;entryDy=0;" edge="1" parent="WIyWlLk6GJQsqaUBKTNV-1" source="lxwUFzQmobe0N9iCrBZv-141" target="lxwUFzQmobe0N9iCrBZv-81">
          <mxGeometry width="100" height="100" relative="1" as="geometry">
            <mxPoint x="-142.5" y="-1590" as="sourcePoint" />
            <mxPoint x="-42.5" y="-1690" as="targetPoint" />
            <Array as="points">
              <mxPoint x="-73" y="-1760" />
            </Array>
          </mxGeometry>
        </mxCell>
        <mxCell id="lxwUFzQmobe0N9iCrBZv-120" value="" style="edgeStyle=entityRelationEdgeStyle;fontSize=12;html=1;endArrow=ERoneToMany;rounded=0;exitX=0;exitY=0.5;exitDx=0;exitDy=0;entryX=0.016;entryY=0.399;entryDx=0;entryDy=0;entryPerimeter=0;" edge="1" parent="WIyWlLk6GJQsqaUBKTNV-1" source="lxwUFzQmobe0N9iCrBZv-80" target="lxwUFzQmobe0N9iCrBZv-141">
          <mxGeometry width="100" height="100" relative="1" as="geometry">
            <mxPoint x="-82.5" y="-1650" as="sourcePoint" />
            <mxPoint x="-142.5" y="-1890" as="targetPoint" />
          </mxGeometry>
        </mxCell>
        <mxCell id="lxwUFzQmobe0N9iCrBZv-80" value="&lt;b&gt;&lt;u&gt;Bank Account&lt;/u&gt;&lt;/b&gt;&lt;div&gt;Account Nickname&lt;/div&gt;&lt;div&gt;Account Number&lt;/div&gt;&lt;div&gt;Routing Number&lt;/div&gt;" style="rounded=1;whiteSpace=wrap;html=1;" vertex="1" parent="WIyWlLk6GJQsqaUBKTNV-1">
          <mxGeometry x="-283" y="-1975" width="120" height="60" as="geometry" />
        </mxCell>
        <mxCell id="lxwUFzQmobe0N9iCrBZv-124" value="" style="edgeStyle=entityRelationEdgeStyle;fontSize=12;html=1;endArrow=ERoneToMany;rounded=0;entryX=0;entryY=0.25;entryDx=0;entryDy=0;exitX=0.988;exitY=0.43;exitDx=0;exitDy=0;exitPerimeter=0;" edge="1" parent="WIyWlLk6GJQsqaUBKTNV-1" source="lxwUFzQmobe0N9iCrBZv-39" target="lxwUFzQmobe0N9iCrBZv-80">
          <mxGeometry width="100" height="100" relative="1" as="geometry">
            <mxPoint x="-392.5" y="-1970" as="sourcePoint" />
            <mxPoint x="-153" y="-2090" as="targetPoint" />
          </mxGeometry>
        </mxCell>
        <mxCell id="lxwUFzQmobe0N9iCrBZv-127" value="" style="edgeStyle=entityRelationEdgeStyle;fontSize=12;html=1;endArrow=ERoneToMany;rounded=0;exitX=0.5;exitY=0;exitDx=0;exitDy=0;entryX=1;entryY=0.25;entryDx=0;entryDy=0;" edge="1" parent="WIyWlLk6GJQsqaUBKTNV-1" source="lxwUFzQmobe0N9iCrBZv-80" target="lxwUFzQmobe0N9iCrBZv-126">
          <mxGeometry width="100" height="100" relative="1" as="geometry">
            <mxPoint x="33.5" y="-1679" as="sourcePoint" />
            <mxPoint x="-82.5" y="-1610" as="targetPoint" />
          </mxGeometry>
        </mxCell>
        <mxCell id="lxwUFzQmobe0N9iCrBZv-126" value="&lt;span style=&quot;color: rgb(0, 0, 0); font-family: Helvetica; font-size: 12px; font-style: normal; font-variant-ligatures: normal; font-variant-caps: normal; font-weight: 400; letter-spacing: normal; orphans: 2; text-align: center; text-indent: 0px; text-transform: none; widows: 2; word-spacing: 0px; -webkit-text-stroke-width: 0px; white-space: normal; background-color: rgb(251, 251, 251); text-decoration-thickness: initial; text-decoration-style: initial; text-decoration-color: initial; display: inline !important; float: none;&quot;&gt;PAYMENT&amp;nbsp;&lt;/span&gt;&lt;div style=&quot;forced-color-adjust: none; color: rgb(0, 0, 0); font-family: Helvetica; font-size: 12px; font-style: normal; font-variant-ligatures: normal; font-variant-caps: normal; font-weight: 400; letter-spacing: normal; orphans: 2; text-align: center; text-indent: 0px; text-transform: none; widows: 2; word-spacing: 0px; -webkit-text-stroke-width: 0px; white-space: normal; background-color: rgb(251, 251, 251); text-decoration-thickness: initial; text-decoration-style: initial; text-decoration-color: initial;&quot;&gt;METHODS&lt;/div&gt;" style="whiteSpace=wrap;html=1;align=center;" vertex="1" parent="WIyWlLk6GJQsqaUBKTNV-1">
          <mxGeometry x="-413" y="-2130" width="100" height="40" as="geometry" />
        </mxCell>
        <mxCell id="lxwUFzQmobe0N9iCrBZv-128" value="" style="edgeStyle=entityRelationEdgeStyle;fontSize=12;html=1;endArrow=ERmandOne;startArrow=ERmandOne;rounded=0;exitX=0;exitY=0.25;exitDx=0;exitDy=0;entryX=0.5;entryY=1;entryDx=0;entryDy=0;" edge="1" parent="WIyWlLk6GJQsqaUBKTNV-1" source="lxwUFzQmobe0N9iCrBZv-72" target="lxwUFzQmobe0N9iCrBZv-104">
          <mxGeometry width="100" height="100" relative="1" as="geometry">
            <mxPoint x="-12.5" y="-1670" as="sourcePoint" />
            <mxPoint x="87.5" y="-1770" as="targetPoint" />
            <Array as="points">
              <mxPoint x="137.5" y="-1610" />
              <mxPoint x="117.5" y="-1580" />
              <mxPoint x="167.5" y="-1580" />
            </Array>
          </mxGeometry>
        </mxCell>
        <mxCell id="lxwUFzQmobe0N9iCrBZv-143" style="edgeStyle=orthogonalEdgeStyle;rounded=0;orthogonalLoop=1;jettySize=auto;html=1;exitX=0.5;exitY=0;exitDx=0;exitDy=0;" edge="1" parent="WIyWlLk6GJQsqaUBKTNV-1" source="lxwUFzQmobe0N9iCrBZv-141">
          <mxGeometry relative="1" as="geometry">
            <mxPoint x="-76" y="-1843.6842105263158" as="targetPoint" />
          </mxGeometry>
        </mxCell>
        <mxCell id="lxwUFzQmobe0N9iCrBZv-141" value="Relationship" style="shape=rhombus;perimeter=rhombusPerimeter;whiteSpace=wrap;html=1;align=center;" vertex="1" parent="WIyWlLk6GJQsqaUBKTNV-1">
          <mxGeometry x="-136" y="-1843.5" width="120" height="60" as="geometry" />
        </mxCell>
        <mxCell id="lxwUFzQmobe0N9iCrBZv-144" value="" style="edgeStyle=entityRelationEdgeStyle;fontSize=12;html=1;endArrow=ERmany;rounded=0;entryX=0.5;entryY=0;entryDx=0;entryDy=0;exitX=0;exitY=1;exitDx=0;exitDy=0;" edge="1" parent="WIyWlLk6GJQsqaUBKTNV-1" source="lxwUFzQmobe0N9iCrBZv-104" target="lxwUFzQmobe0N9iCrBZv-141">
          <mxGeometry width="100" height="100" relative="1" as="geometry">
            <mxPoint x="-83" y="-1659" as="sourcePoint" />
            <mxPoint x="17" y="-1759" as="targetPoint" />
          </mxGeometry>
        </mxCell>
        <mxCell id="lxwUFzQmobe0N9iCrBZv-146" value="&lt;div&gt;Name On Card&lt;/div&gt;" style="ellipse;whiteSpace=wrap;html=1;align=center;" vertex="1" parent="WIyWlLk6GJQsqaUBKTNV-1">
          <mxGeometry x="-136" y="-1630" width="93" height="30" as="geometry" />
        </mxCell>
        <mxCell id="lxwUFzQmobe0N9iCrBZv-147" value="&lt;div&gt;Expiry Date&lt;/div&gt;" style="ellipse;whiteSpace=wrap;html=1;align=center;" vertex="1" parent="WIyWlLk6GJQsqaUBKTNV-1">
          <mxGeometry x="-243" y="-1600" width="90" height="30" as="geometry" />
        </mxCell>
        <mxCell id="lxwUFzQmobe0N9iCrBZv-148" value="&lt;div&gt;Billing Zip Code&lt;/div&gt;" style="ellipse;whiteSpace=wrap;html=1;align=center;" vertex="1" parent="WIyWlLk6GJQsqaUBKTNV-1">
          <mxGeometry x="-453" y="-1679" width="90" height="29" as="geometry" />
        </mxCell>
        <mxCell id="lxwUFzQmobe0N9iCrBZv-149" value="CVV" style="ellipse;whiteSpace=wrap;html=1;align=center;" vertex="1" parent="WIyWlLk6GJQsqaUBKTNV-1">
          <mxGeometry x="-399" y="-1620" width="69.5" height="20" as="geometry" />
        </mxCell>
        <mxCell id="lxwUFzQmobe0N9iCrBZv-154" value="" style="edgeStyle=orthogonalEdgeStyle;rounded=0;orthogonalLoop=1;jettySize=auto;html=1;" edge="1" parent="WIyWlLk6GJQsqaUBKTNV-1" source="lxwUFzQmobe0N9iCrBZv-151" target="lxwUFzQmobe0N9iCrBZv-81">
          <mxGeometry relative="1" as="geometry" />
        </mxCell>
        <mxCell id="lxwUFzQmobe0N9iCrBZv-151" value="Card Number&amp;nbsp;" style="ellipse;whiteSpace=wrap;html=1;align=center;fontStyle=4;" vertex="1" parent="WIyWlLk6GJQsqaUBKTNV-1">
          <mxGeometry x="-329.5" y="-1610" width="86.5" height="30" as="geometry" />
        </mxCell>
        <mxCell id="lxwUFzQmobe0N9iCrBZv-152" style="edgeStyle=orthogonalEdgeStyle;rounded=0;orthogonalLoop=1;jettySize=auto;html=1;entryX=0.038;entryY=0.87;entryDx=0;entryDy=0;entryPerimeter=0;" edge="1" parent="WIyWlLk6GJQsqaUBKTNV-1" source="lxwUFzQmobe0N9iCrBZv-148" target="lxwUFzQmobe0N9iCrBZv-81">
          <mxGeometry relative="1" as="geometry" />
        </mxCell>
        <mxCell id="lxwUFzQmobe0N9iCrBZv-155" style="edgeStyle=orthogonalEdgeStyle;rounded=0;orthogonalLoop=1;jettySize=auto;html=1;" edge="1" parent="WIyWlLk6GJQsqaUBKTNV-1" source="lxwUFzQmobe0N9iCrBZv-147" target="lxwUFzQmobe0N9iCrBZv-81">
          <mxGeometry relative="1" as="geometry" />
        </mxCell>
        <mxCell id="lxwUFzQmobe0N9iCrBZv-157" style="edgeStyle=orthogonalEdgeStyle;rounded=0;orthogonalLoop=1;jettySize=auto;html=1;entryX=0.994;entryY=0.401;entryDx=0;entryDy=0;entryPerimeter=0;" edge="1" parent="WIyWlLk6GJQsqaUBKTNV-1" source="lxwUFzQmobe0N9iCrBZv-146" target="lxwUFzQmobe0N9iCrBZv-81">
          <mxGeometry relative="1" as="geometry" />
        </mxCell>
        <mxCell id="lxwUFzQmobe0N9iCrBZv-160" style="edgeStyle=orthogonalEdgeStyle;rounded=0;orthogonalLoop=1;jettySize=auto;html=1;entryX=0.028;entryY=0.906;entryDx=0;entryDy=0;entryPerimeter=0;" edge="1" parent="WIyWlLk6GJQsqaUBKTNV-1" source="lxwUFzQmobe0N9iCrBZv-149" target="lxwUFzQmobe0N9iCrBZv-81">
          <mxGeometry relative="1" as="geometry" />
        </mxCell>
        <mxCell id="lxwUFzQmobe0N9iCrBZv-162" value="" style="edgeStyle=entityRelationEdgeStyle;fontSize=12;html=1;endArrow=ERoneToMany;rounded=0;exitX=0;exitY=0.5;exitDx=0;exitDy=0;" edge="1" parent="WIyWlLk6GJQsqaUBKTNV-1" source="lxwUFzQmobe0N9iCrBZv-104" target="lxwUFzQmobe0N9iCrBZv-161">
          <mxGeometry width="100" height="100" relative="1" as="geometry">
            <mxPoint x="-16" y="-2010" as="sourcePoint" />
            <mxPoint x="-113" y="-2050" as="targetPoint" />
          </mxGeometry>
        </mxCell>
        <mxCell id="lxwUFzQmobe0N9iCrBZv-163" style="edgeStyle=orthogonalEdgeStyle;rounded=0;orthogonalLoop=1;jettySize=auto;html=1;entryX=1;entryY=0.25;entryDx=0;entryDy=0;" edge="1" parent="WIyWlLk6GJQsqaUBKTNV-1" source="lxwUFzQmobe0N9iCrBZv-161" target="lxwUFzQmobe0N9iCrBZv-80">
          <mxGeometry relative="1" as="geometry" />
        </mxCell>
        <mxCell id="lxwUFzQmobe0N9iCrBZv-161" value="Relationship" style="shape=rhombus;perimeter=rhombusPerimeter;whiteSpace=wrap;html=1;align=center;" vertex="1" parent="WIyWlLk6GJQsqaUBKTNV-1">
          <mxGeometry x="-196" y="-2050" width="120" height="60" as="geometry" />
        </mxCell>
        <mxCell id="lxwUFzQmobe0N9iCrBZv-175" value="" style="edgeStyle=orthogonalEdgeStyle;rounded=0;orthogonalLoop=1;jettySize=auto;html=1;" edge="1" parent="WIyWlLk6GJQsqaUBKTNV-1" source="lxwUFzQmobe0N9iCrBZv-164" target="lxwUFzQmobe0N9iCrBZv-174">
          <mxGeometry relative="1" as="geometry" />
        </mxCell>
        <mxCell id="lxwUFzQmobe0N9iCrBZv-176" value="" style="edgeStyle=orthogonalEdgeStyle;rounded=0;orthogonalLoop=1;jettySize=auto;html=1;" edge="1" parent="WIyWlLk6GJQsqaUBKTNV-1" source="lxwUFzQmobe0N9iCrBZv-164" target="lxwUFzQmobe0N9iCrBZv-173">
          <mxGeometry relative="1" as="geometry" />
        </mxCell>
        <mxCell id="lxwUFzQmobe0N9iCrBZv-164" value="&lt;b&gt;Business Info&amp;nbsp;&lt;/b&gt;" style="rounded=1;arcSize=10;whiteSpace=wrap;html=1;align=center;" vertex="1" parent="WIyWlLk6GJQsqaUBKTNV-1">
          <mxGeometry x="367" y="-1930" width="100" height="40" as="geometry" />
        </mxCell>
        <mxCell id="lxwUFzQmobe0N9iCrBZv-165" value="&lt;div&gt;&lt;span style=&quot;background-color: initial;&quot;&gt;City&lt;/span&gt;&lt;/div&gt;" style="ellipse;whiteSpace=wrap;html=1;align=center;" vertex="1" parent="WIyWlLk6GJQsqaUBKTNV-1">
          <mxGeometry x="487" y="-1910" width="65" height="20" as="geometry" />
        </mxCell>
        <mxCell id="lxwUFzQmobe0N9iCrBZv-166" value="&lt;div&gt;&lt;u&gt;EIN/TIN/Tax ID&lt;/u&gt;&lt;/div&gt;" style="ellipse;whiteSpace=wrap;html=1;align=center;" vertex="1" parent="WIyWlLk6GJQsqaUBKTNV-1">
          <mxGeometry x="467" y="-1883.5" width="85" height="30" as="geometry" />
        </mxCell>
        <mxCell id="lxwUFzQmobe0N9iCrBZv-167" value="Email" style="ellipse;whiteSpace=wrap;html=1;align=center;" vertex="1" parent="WIyWlLk6GJQsqaUBKTNV-1">
          <mxGeometry x="477" y="-1975" width="60" height="20" as="geometry" />
        </mxCell>
        <mxCell id="lxwUFzQmobe0N9iCrBZv-168" value="Venu" style="ellipse;whiteSpace=wrap;html=1;align=center;" vertex="1" parent="WIyWlLk6GJQsqaUBKTNV-1">
          <mxGeometry x="487" y="-1940" width="60" height="20" as="geometry" />
        </mxCell>
        <mxCell id="lxwUFzQmobe0N9iCrBZv-169" value="Name" style="ellipse;whiteSpace=wrap;html=1;align=center;" vertex="1" parent="WIyWlLk6GJQsqaUBKTNV-1">
          <mxGeometry x="352" y="-1975" width="60" height="20" as="geometry" />
        </mxCell>
        <mxCell id="lxwUFzQmobe0N9iCrBZv-170" value="&lt;div&gt;&lt;span style=&quot;background-color: initial;&quot;&gt;State&lt;/span&gt;&lt;/div&gt;" style="ellipse;whiteSpace=wrap;html=1;align=center;" vertex="1" parent="WIyWlLk6GJQsqaUBKTNV-1">
          <mxGeometry x="312" y="-1955" width="55" height="20" as="geometry" />
        </mxCell>
        <mxCell id="lxwUFzQmobe0N9iCrBZv-171" value="&lt;div&gt;&lt;span style=&quot;background-color: initial;&quot;&gt;Zip&lt;/span&gt;&lt;/div&gt;" style="ellipse;whiteSpace=wrap;html=1;align=center;" vertex="1" parent="WIyWlLk6GJQsqaUBKTNV-1">
          <mxGeometry x="319.5" y="-1870" width="62.5" height="20" as="geometry" />
        </mxCell>
        <mxCell id="lxwUFzQmobe0N9iCrBZv-172" value="&lt;div&gt;&lt;span style=&quot;background-color: initial;&quot;&gt;Business Ph No&lt;/span&gt;&lt;/div&gt;" style="ellipse;whiteSpace=wrap;html=1;align=center;" vertex="1" parent="WIyWlLk6GJQsqaUBKTNV-1">
          <mxGeometry x="387" y="-1860" width="95" height="40" as="geometry" />
        </mxCell>
        <mxCell id="lxwUFzQmobe0N9iCrBZv-173" value="&lt;div&gt;&lt;span style=&quot;background-color: initial;&quot;&gt;&lt;u&gt;Logo&lt;/u&gt;&lt;/span&gt;&lt;/div&gt;" style="ellipse;whiteSpace=wrap;html=1;align=center;" vertex="1" parent="WIyWlLk6GJQsqaUBKTNV-1">
          <mxGeometry x="414.5" y="-1995" width="72.5" height="20" as="geometry" />
        </mxCell>
        <mxCell id="lxwUFzQmobe0N9iCrBZv-174" value="Relationship" style="shape=rhombus;perimeter=rhombusPerimeter;whiteSpace=wrap;html=1;align=center;" vertex="1" parent="WIyWlLk6GJQsqaUBKTNV-1">
          <mxGeometry x="192" y="-1930" width="120" height="60" as="geometry" />
        </mxCell>
        <mxCell id="lxwUFzQmobe0N9iCrBZv-179" value="" style="line;strokeWidth=1;html=1;perimeter=backbonePerimeter;points=[];outlineConnect=0;rotation=15;" vertex="1" parent="WIyWlLk6GJQsqaUBKTNV-1">
          <mxGeometry x="467" y="-1910" width="20" height="10" as="geometry" />
        </mxCell>
        <mxCell id="lxwUFzQmobe0N9iCrBZv-183" value="" style="line;strokeWidth=1;html=1;rotation=60;" vertex="1" parent="WIyWlLk6GJQsqaUBKTNV-1">
          <mxGeometry x="382" y="-1950" width="30" height="10" as="geometry" />
        </mxCell>
        <mxCell id="lxwUFzQmobe0N9iCrBZv-184" value="" style="line;strokeWidth=1;html=1;rotation=15;" vertex="1" parent="WIyWlLk6GJQsqaUBKTNV-1">
          <mxGeometry x="352" y="-1940" width="30" height="10" as="geometry" />
        </mxCell>
        <mxCell id="lxwUFzQmobe0N9iCrBZv-186" value="" style="line;strokeWidth=1;html=1;" vertex="1" parent="WIyWlLk6GJQsqaUBKTNV-1">
          <mxGeometry x="464.5" y="-1930" width="30" height="10" as="geometry" />
        </mxCell>
        <mxCell id="lxwUFzQmobe0N9iCrBZv-188" value="" style="line;strokeWidth=1;html=1;rotation=-50;" vertex="1" parent="WIyWlLk6GJQsqaUBKTNV-1">
          <mxGeometry x="357" y="-1883.5" width="30" height="10" as="geometry" />
        </mxCell>
        <mxCell id="lxwUFzQmobe0N9iCrBZv-191" value="" style="line;strokeWidth=1;html=1;rotation=60;" vertex="1" parent="WIyWlLk6GJQsqaUBKTNV-1">
          <mxGeometry x="405.75" y="-1881.33" width="40" height="10" as="geometry" />
        </mxCell>
        <mxCell id="lxwUFzQmobe0N9iCrBZv-192" value="" style="line;strokeWidth=1;html=1;rotation=-60;" vertex="1" parent="WIyWlLk6GJQsqaUBKTNV-1">
          <mxGeometry x="454.5" y="-1954.33" width="40" height="10" as="geometry" />
        </mxCell>
        <mxCell id="lxwUFzQmobe0N9iCrBZv-193" value="Name" style="ellipse;whiteSpace=wrap;html=1;align=center;" vertex="1" parent="WIyWlLk6GJQsqaUBKTNV-1">
          <mxGeometry x="509.5" y="-1705.83" width="60" height="20" as="geometry" />
        </mxCell>
        <mxCell id="lxwUFzQmobe0N9iCrBZv-202" value="" style="edgeStyle=orthogonalEdgeStyle;rounded=0;orthogonalLoop=1;jettySize=auto;html=1;" edge="1" parent="WIyWlLk6GJQsqaUBKTNV-1" target="lxwUFzQmobe0N9iCrBZv-197">
          <mxGeometry relative="1" as="geometry">
            <mxPoint x="352" y="-1690.83" as="sourcePoint" />
          </mxGeometry>
        </mxCell>
        <mxCell id="lxwUFzQmobe0N9iCrBZv-194" value="&lt;u&gt;Social Sec No&lt;/u&gt;" style="ellipse;whiteSpace=wrap;html=1;align=center;" vertex="1" parent="WIyWlLk6GJQsqaUBKTNV-1">
          <mxGeometry x="272" y="-1705" width="80" height="30" as="geometry" />
        </mxCell>
        <mxCell id="lxwUFzQmobe0N9iCrBZv-195" value="Date Of Birth" style="ellipse;whiteSpace=wrap;html=1;align=center;" vertex="1" parent="WIyWlLk6GJQsqaUBKTNV-1">
          <mxGeometry x="405.75" y="-1625" width="80" height="20" as="geometry" />
        </mxCell>
        <mxCell id="lxwUFzQmobe0N9iCrBZv-200" value="" style="edgeStyle=orthogonalEdgeStyle;rounded=0;orthogonalLoop=1;jettySize=auto;html=1;" edge="1" parent="WIyWlLk6GJQsqaUBKTNV-1" source="lxwUFzQmobe0N9iCrBZv-197" target="lxwUFzQmobe0N9iCrBZv-193">
          <mxGeometry relative="1" as="geometry" />
        </mxCell>
        <mxCell id="lxwUFzQmobe0N9iCrBZv-205" style="edgeStyle=orthogonalEdgeStyle;rounded=0;orthogonalLoop=1;jettySize=auto;html=1;entryX=0.5;entryY=0;entryDx=0;entryDy=0;" edge="1" parent="WIyWlLk6GJQsqaUBKTNV-1" source="lxwUFzQmobe0N9iCrBZv-198" target="lxwUFzQmobe0N9iCrBZv-197">
          <mxGeometry relative="1" as="geometry" />
        </mxCell>
        <mxCell id="lxwUFzQmobe0N9iCrBZv-198" value="Relationship" style="shape=rhombus;perimeter=rhombusPerimeter;whiteSpace=wrap;html=1;align=center;" vertex="1" parent="WIyWlLk6GJQsqaUBKTNV-1">
          <mxGeometry x="217" y="-1813" width="120" height="60" as="geometry" />
        </mxCell>
        <mxCell id="lxwUFzQmobe0N9iCrBZv-203" value="" style="edgeStyle=orthogonalEdgeStyle;rounded=0;orthogonalLoop=1;jettySize=auto;html=1;" edge="1" parent="WIyWlLk6GJQsqaUBKTNV-1" source="lxwUFzQmobe0N9iCrBZv-195" target="lxwUFzQmobe0N9iCrBZv-197">
          <mxGeometry relative="1" as="geometry">
            <mxPoint x="280" y="-1640" as="sourcePoint" />
            <mxPoint x="277" y="-1753" as="targetPoint" />
          </mxGeometry>
        </mxCell>
        <mxCell id="lxwUFzQmobe0N9iCrBZv-197" value="&lt;b&gt;Other Business&lt;/b&gt;" style="rounded=1;arcSize=10;whiteSpace=wrap;html=1;align=center;" vertex="1" parent="WIyWlLk6GJQsqaUBKTNV-1">
          <mxGeometry x="382" y="-1715.83" width="100" height="40" as="geometry" />
        </mxCell>
      </root>
    </mxGraphModel>
  </diagram>
</mxfile>
